<svg width="120" height="120" viewBox="0 0 120 120" fill="none" xmlns="http://www.w3.org/2000/svg">
  <rect width="120" height="120" fill="white" />
  <g clip-path="url(#clip0_203_869)">
    <path
      d="M44.1821 32.465H49.8982L62.6628 68.6278H55.0042L52.6544 61.1629H38.986L36.7491 68.6278H29.0902L40.7256 34.8837C41.3129 33.2788 42.4877 32.465 44.1821 32.465ZM45.8088 39.7208L40.9061 55.0697H50.7115L45.8088 39.7208Z"
      fill="black" />
    <path
      d="M64.4252 68.6278C64.4252 65.2791 65.2157 62.2789 66.7747 59.6974C68.198 57.3257 70.3443 55.1162 73.2137 53.0697C73.4169 52.9301 73.7107 52.7209 74.14 52.4882C74.5468 52.2325 75.0209 51.9536 75.5635 51.6044C77.8 50.1395 79.5397 48.7672 80.7823 47.5115C82.0251 46.2324 82.6123 44.9071 82.6123 43.5114C82.6123 41.8138 82.1377 40.5346 81.1889 39.6277C80.2403 38.6512 78.9523 38.1628 77.3032 38.1628C75.4732 38.1628 74.0495 38.7439 73.0329 39.9535C72.0843 41.2326 71.6097 42.8602 71.6097 44.9071V45.2324H67.9269C66.5037 45.2324 65.668 44.8371 65.4192 44.0232C65.1706 43.2091 65.1255 42.3256 65.2837 41.3488C65.758 39.0466 66.7523 37.0463 68.2657 35.3487C70.5026 33.093 73.6883 32 77.7549 32C81.5506 32 84.5552 33.023 86.7468 35.0695C88.9383 37.2555 90 40.0465 90 43.4883C90 46.0928 89.4352 48.2092 88.2606 49.9068C87.0177 51.7906 84.7812 53.8835 81.5277 56.0931C80.3532 56.9303 78.9295 57.9068 77.19 59.0233C75.4503 60.1394 74.4789 61.2325 74.298 62.2789H89.9777V68.6979H64.4252V68.6278Z"
      fill="#F4B400" />
    <path
      d="M29 81.8141H32.0048C32.1177 82.6976 32.4566 83.3026 32.9763 83.6513C33.5412 84.0699 34.3318 84.2558 35.326 84.2558C36.2071 84.2558 36.8624 84.0927 37.3141 83.7674C37.7658 83.4418 38.0143 82.9768 38.0143 82.372C38.0143 81.4417 36.7268 80.6745 34.1962 80.0931L34.1058 80.0695L33.7669 79.9768C32.3209 79.6512 31.3495 79.3253 30.875 78.9766C30.3105 78.6513 29.9036 78.1857 29.6779 77.5813C29.3841 77.0464 29.2485 76.3721 29.2485 75.5815C29.2485 74.1394 29.7231 73 30.6946 72.2091C31.666 71.4185 33.0667 71.0231 34.9191 71.0231C36.6588 71.0231 37.9919 71.4419 38.9409 72.2556C39.9123 73.1626 40.4093 74.3255 40.4772 75.8141H38.76C38.1047 75.8141 37.653 75.4882 37.3593 74.8838C37.2237 74.5813 37.0204 74.3486 36.772 74.1394C36.2523 73.7442 35.5517 73.5814 34.6707 73.5814C33.8121 73.5814 33.2023 73.7442 32.8407 74.0698C32.4114 74.3951 32.2081 74.8601 32.2081 75.4418C32.2081 76.2324 33.0439 76.814 34.6707 77.2095C35.1452 77.3489 35.5069 77.4652 35.7325 77.488C36.2522 77.6511 36.6816 77.8139 37.0656 77.9069C37.4497 78.0001 37.7658 78.0697 37.9919 78.1629C38.3984 78.3254 38.7825 78.5116 39.1894 78.6978C39.7543 79.0465 40.1832 79.5115 40.5221 80.0695C40.8385 80.6745 40.9965 81.3721 40.9965 82.0698C40.9965 83.6513 40.4772 84.8836 39.4602 85.7675C38.4436 86.5815 36.9976 87 35.1 87C33.1796 87 31.7336 86.5815 30.7398 85.7207C29.6551 84.7445 29.0904 83.5116 29 81.8141Z"
      fill="black" />
    <path
      d="M41.5389 86.5116V73.0001C41.5389 72.5581 41.6742 72.1861 41.9906 71.8838C42.3068 71.5582 42.6456 71.4185 43.075 71.4185H52.2026V74.0233H44.5209V77.2791H50.237V78.2792C50.237 78.7209 50.1014 79.0932 49.7853 79.3955C49.4688 79.7213 49.13 79.8605 48.7006 79.8605H44.5209V83.7209H52.2026V86.535L41.5389 86.5116Z"
      fill="black" />
    <path
      d="M57.7829 86.5116L52.7222 71.4185H56.0887L59.2067 82.6979L62.0532 72.5581C62.2112 71.7909 62.6857 71.4185 63.4992 71.4185H65.668L60.6749 86.5116H57.7829Z"
      fill="black" />
    <path
      d="M66.3231 86.5116V73.0001C66.3231 72.5581 66.4588 72.1861 66.7748 71.8838C67.0914 71.5582 67.4303 71.4185 67.8594 71.4185H76.9868V74.0233H69.3054V77.2791H75.0211V78.2792C75.0211 78.7209 74.8856 79.0932 74.5694 79.3955C74.2531 79.6977 73.9143 79.8605 73.4848 79.8605H69.3054V83.7209H76.9868V86.535L66.3231 86.5116Z"
      fill="black" />
    <path
      d="M77.8457 86.5116V73C77.8457 72.5581 77.9812 72.186 78.2974 71.8838C78.6137 71.5582 78.9526 71.4185 79.382 71.372H81.0084L86.9729 81.7676V71.3954H89.9777V86.5581H86.86L80.8503 76.1628V86.5581L77.8457 86.5116Z"
      fill="black" />
  </g>
  <defs>
    <clipPath id="clip0_203_869">
      <rect width="61" height="55" fill="white" transform="translate(29 32)" />
    </clipPath>
  </defs>
</svg>